<svg width="192" height="192" viewBox="0 0 192 192" fill="none" xmlns="http://www.w3.org/2000/svg">
<rect width="192" height="192" fill="#00CCAA"/>
<path fill-rule="evenodd" clip-rule="evenodd" d="M30 102.911C30 70.2773 56.455 43.8223 89.0889 43.8223H123.667V68.3332H89.0889C69.992 68.3332 54.5109 83.8143 54.5109 102.911C54.5109 122.008 69.992 137.489 89.0889 137.489C108.186 137.489 123.667 122.008 123.667 102.911V68.3332H148.178V102.911C148.178 135.545 121.723 162 89.0889 162C56.455 162 30 135.545 30 102.911Z" fill="white"/>
<path d="M148.527 56.9531C155.97 56.9531 162.004 50.9194 162.004 43.4765C162.004 36.0337 155.97 30 148.527 30C141.084 30 135.051 36.0337 135.051 43.4765V56.9531H148.527Z" fill="white"/>
</svg>
